<mxfile host="app.diagrams.net" modified="2024-02-28T22:56:59.387Z" agent="Mozilla/5.0 (Windows NT 10.0; Win64; x64) AppleWebKit/537.36 (KHTML, like Gecko) Chrome/122.0.0.0 Safari/537.36 Edg/122.0.0.0" etag="PH0g15w1jR02zRp9zmHJ" version="23.1.8" type="github">
  <diagram name="PÃ¡gina-1" id="bhvhz-DQcpxt4AfP02av">
    <mxGraphModel dx="1699" dy="447" grid="1" gridSize="10" guides="1" tooltips="1" connect="1" arrows="1" fold="1" page="1" pageScale="1" pageWidth="827" pageHeight="1169" math="0" shadow="0">
      <root>
        <mxCell id="0" />
        <mxCell id="1" parent="0" />
        <mxCell id="-wgwqUzrmiWu70D6c5Yp-5" style="edgeStyle=orthogonalEdgeStyle;rounded=0;orthogonalLoop=1;jettySize=auto;html=1;exitX=0.25;exitY=0;exitDx=0;exitDy=0;" parent="1" source="-wgwqUzrmiWu70D6c5Yp-3" target="-wgwqUzrmiWu70D6c5Yp-4" edge="1">
          <mxGeometry relative="1" as="geometry" />
        </mxCell>
        <mxCell id="-wgwqUzrmiWu70D6c5Yp-9" style="edgeStyle=orthogonalEdgeStyle;rounded=0;orthogonalLoop=1;jettySize=auto;html=1;entryX=0.5;entryY=1;entryDx=0;entryDy=0;exitX=0.75;exitY=0;exitDx=0;exitDy=0;" parent="1" source="-wgwqUzrmiWu70D6c5Yp-3" target="-wgwqUzrmiWu70D6c5Yp-8" edge="1">
          <mxGeometry relative="1" as="geometry" />
        </mxCell>
        <mxCell id="-wgwqUzrmiWu70D6c5Yp-11" style="edgeStyle=orthogonalEdgeStyle;rounded=0;orthogonalLoop=1;jettySize=auto;html=1;entryX=1;entryY=0.5;entryDx=0;entryDy=0;" parent="1" source="-wgwqUzrmiWu70D6c5Yp-3" target="-wgwqUzrmiWu70D6c5Yp-10" edge="1">
          <mxGeometry relative="1" as="geometry" />
        </mxCell>
        <mxCell id="-wgwqUzrmiWu70D6c5Yp-13" style="edgeStyle=orthogonalEdgeStyle;rounded=0;orthogonalLoop=1;jettySize=auto;html=1;" parent="1" source="-wgwqUzrmiWu70D6c5Yp-3" target="-wgwqUzrmiWu70D6c5Yp-12" edge="1">
          <mxGeometry relative="1" as="geometry" />
        </mxCell>
        <mxCell id="-wgwqUzrmiWu70D6c5Yp-22" style="edgeStyle=orthogonalEdgeStyle;rounded=0;orthogonalLoop=1;jettySize=auto;html=1;" parent="1" source="-wgwqUzrmiWu70D6c5Yp-3" target="-wgwqUzrmiWu70D6c5Yp-21" edge="1">
          <mxGeometry relative="1" as="geometry" />
        </mxCell>
        <mxCell id="-wgwqUzrmiWu70D6c5Yp-24" style="edgeStyle=orthogonalEdgeStyle;rounded=0;orthogonalLoop=1;jettySize=auto;html=1;entryX=0;entryY=0.5;entryDx=0;entryDy=0;exitX=1;exitY=1;exitDx=0;exitDy=0;" parent="1" source="-wgwqUzrmiWu70D6c5Yp-3" target="-wgwqUzrmiWu70D6c5Yp-23" edge="1">
          <mxGeometry relative="1" as="geometry" />
        </mxCell>
        <mxCell id="-wgwqUzrmiWu70D6c5Yp-3" value="Sala" style="whiteSpace=wrap;html=1;align=center;" parent="1" vertex="1">
          <mxGeometry x="360" y="220" width="100" height="40" as="geometry" />
        </mxCell>
        <mxCell id="-wgwqUzrmiWu70D6c5Yp-4" value="decarga_permitida" style="ellipse;whiteSpace=wrap;html=1;align=center;" parent="1" vertex="1">
          <mxGeometry x="290" y="120" width="100" height="40" as="geometry" />
        </mxCell>
        <mxCell id="-wgwqUzrmiWu70D6c5Yp-8" value="archivo" style="ellipse;whiteSpace=wrap;html=1;align=center;" parent="1" vertex="1">
          <mxGeometry x="414" y="120" width="100" height="40" as="geometry" />
        </mxCell>
        <mxCell id="-wgwqUzrmiWu70D6c5Yp-10" value="sala ID" style="ellipse;whiteSpace=wrap;html=1;align=center;fontStyle=4;" parent="1" vertex="1">
          <mxGeometry x="210" y="220" width="100" height="40" as="geometry" />
        </mxCell>
        <mxCell id="-wgwqUzrmiWu70D6c5Yp-12" value="clave de acceso" style="ellipse;whiteSpace=wrap;html=1;align=center;" parent="1" vertex="1">
          <mxGeometry x="520" y="220" width="100" height="40" as="geometry" />
        </mxCell>
        <mxCell id="-wgwqUzrmiWu70D6c5Yp-16" style="edgeStyle=orthogonalEdgeStyle;rounded=0;orthogonalLoop=1;jettySize=auto;html=1;" parent="1" source="-wgwqUzrmiWu70D6c5Yp-14" target="-wgwqUzrmiWu70D6c5Yp-15" edge="1">
          <mxGeometry relative="1" as="geometry" />
        </mxCell>
        <mxCell id="-wgwqUzrmiWu70D6c5Yp-18" style="edgeStyle=orthogonalEdgeStyle;rounded=0;orthogonalLoop=1;jettySize=auto;html=1;" parent="1" source="-wgwqUzrmiWu70D6c5Yp-14" target="-wgwqUzrmiWu70D6c5Yp-17" edge="1">
          <mxGeometry relative="1" as="geometry" />
        </mxCell>
        <mxCell id="-wgwqUzrmiWu70D6c5Yp-20" style="edgeStyle=orthogonalEdgeStyle;rounded=0;orthogonalLoop=1;jettySize=auto;html=1;entryX=1;entryY=0.5;entryDx=0;entryDy=0;" parent="1" source="-wgwqUzrmiWu70D6c5Yp-14" target="-wgwqUzrmiWu70D6c5Yp-19" edge="1">
          <mxGeometry relative="1" as="geometry" />
        </mxCell>
        <mxCell id="EEo_tb-CT-aGaO0MH-xm-2" style="edgeStyle=orthogonalEdgeStyle;rounded=0;orthogonalLoop=1;jettySize=auto;html=1;" edge="1" parent="1" source="-wgwqUzrmiWu70D6c5Yp-14" target="EEo_tb-CT-aGaO0MH-xm-1">
          <mxGeometry relative="1" as="geometry" />
        </mxCell>
        <mxCell id="-wgwqUzrmiWu70D6c5Yp-14" value="Usuario" style="whiteSpace=wrap;html=1;align=center;" parent="1" vertex="1">
          <mxGeometry x="120" y="440" width="100" height="40" as="geometry" />
        </mxCell>
        <mxCell id="-wgwqUzrmiWu70D6c5Yp-15" value="Nombre" style="ellipse;whiteSpace=wrap;html=1;align=center;" parent="1" vertex="1">
          <mxGeometry x="280" y="440" width="100" height="40" as="geometry" />
        </mxCell>
        <mxCell id="-wgwqUzrmiWu70D6c5Yp-17" value="Num de telefono" style="ellipse;whiteSpace=wrap;html=1;align=center;" parent="1" vertex="1">
          <mxGeometry x="120" y="530" width="100" height="40" as="geometry" />
        </mxCell>
        <mxCell id="-wgwqUzrmiWu70D6c5Yp-19" value="correo" style="ellipse;whiteSpace=wrap;html=1;align=center;" parent="1" vertex="1">
          <mxGeometry x="-40" y="440" width="100" height="40" as="geometry" />
        </mxCell>
        <mxCell id="-wgwqUzrmiWu70D6c5Yp-21" value="usuario ID" style="ellipse;whiteSpace=wrap;html=1;align=center;" parent="1" vertex="1">
          <mxGeometry x="360" y="320" width="100" height="40" as="geometry" />
        </mxCell>
        <mxCell id="-wgwqUzrmiWu70D6c5Yp-23" value="comprobante pago" style="ellipse;whiteSpace=wrap;html=1;align=center;" parent="1" vertex="1">
          <mxGeometry x="514" y="300" width="100" height="40" as="geometry" />
        </mxCell>
        <mxCell id="EEo_tb-CT-aGaO0MH-xm-1" value="usuario ID" style="ellipse;whiteSpace=wrap;html=1;align=center;fontStyle=4;" vertex="1" parent="1">
          <mxGeometry x="120" y="350" width="100" height="40" as="geometry" />
        </mxCell>
      </root>
    </mxGraphModel>
  </diagram>
</mxfile>
